<svg width="48" height="48" viewBox="0 0 48 48" fill="none" xmlns="http://www.w3.org/2000/svg">
  <rect width="48" height="48" rx="8.88889" fill="white"/>
  <path d="M24 8C28.4183 8 32.4183 9.83337 35.2426 13C38.0668 16.1666 40 20.4183 40 25C40 29.5817 38.0668 33.8334 35.2426 37C32.4183 40.1666 28.4183 42 24 42C19.5817 42 15.5817 40.1666 12.7574 37C9.93321 33.8334 8 29.5817 8 25C8 20.4183 9.93321 16.1666 12.7574 13C15.5817 9.83337 19.5817 8 24 8ZM24 11C20.6863 11 17.6863 12.2816 15.7574 14.2426C13.8284 16.2037 12 19.3333 12 23C12 26.6667 13.8284 29.7963 15.7574 31.7574C17.6863 33.7184 20.6863 35 24 35C27.3137 35 30.3137 33.7184 32.2426 31.7574C34.1716 29.7963 36 26.6667 36 23C36 19.3333 34.1716 16.2037 32.2426 14.2426C30.3137 12.2816 27.3137 11 24 11Z" fill="url(#paint0_linear_1545_39)"/>
  <defs>
    <linearGradient id="paint0_linear_1545_39" x1="8" y1="40" x2="40" y2="8" gradientUnits="userSpaceOnUse">
      <stop stop-color="#FF6E6E"/>
      <stop offset="1" stop-color="#6E6EFF"/>
    </linearGradient>
  </defs>
</svg>
